# xmcd
#
# Track frame offsets: 
#        150
#        15266
#        29493
#        45598
#        66582
#        82011
#        99595
#        113542
#        132134
#        145085
#        174147
#        191745
#        209756
#        225764
#        243679
#        259224
#        275185
#        286445
#
# Disc length: 4063 seconds
#
# Revision: 0
# Processed by: cddbd v1.5.2PL0 Copyright (c) Steve Scherf et al.
# Submitted via: ExactAudioCopyFreeDBPlugin 1.0
#
DISCID=060fdd12
DTITLE=Catherine Britt - Always Never Enough (Limited Edition)
DYEAR=2012
DGENRE=Country
TTITLE0=Always Never Enough
TTITLE1=Charlestown Road
TTITLE2=Addicted to the Pain
TTITLE3=Sally Bones
TTITLE4=There's Gotta Be More
TTITLE5=I'm Your Biggest Fan
TTITLE6=A Good Few Years
TTITLE7=Troubled Man
TTITLE8=Mind Your Own Business
TTITLE9=Our Town
TTITLE10=Thank God There is a Train
TTITLE11=She Ain't Going Nowhere
TTITLE12=All I Recall
TTITLE13=Sweet Emmylou (Acoustic)
TTITLE14=Charlestown Road (Acoustic)
TTITLE15=Always Never Enough (Acoustic)
TTITLE16=A Good Few Years (Acoustic)
TTITLE17=I'm Your Biggest Fan (Acoustic)
EXTD=
EXTT0=
EXTT1=
EXTT2=
EXTT3=
EXTT4=
EXTT5=
EXTT6=
EXTT7=
EXTT8=
EXTT9=
EXTT10=
EXTT11=
EXTT12=
EXTT13=
EXTT14=
EXTT15=
EXTT16=
EXTT17=
PLAYORDER=
